# xmcd CD database file
#
# Track frame offsets:
#	150
#	16915
#	22865
#	34458
#	53231
#	73956
#	86187
#	103912
#	114187
#	128412
#	143803
#	151577
#	165056
#	181599
#	194362
#	207012
#	211197
#	222002
#	233680
#	237531
#	244801
#	253975
#	263248
#
# Disc length: 3578 seconds
#
# Revision: 3
# Processed by: cddbd v1.5.2PL0 Copyright (c) Steve Scherf et al.
# Submitted via: CDex 1.51
#
DISCID=350df817
DTITLE=Tomaso Albinoni - Concerti a cinque, Op.9 - Balleti a cinque
DYEAR=1900
DGENRE=Classique
TTITLE0=Concerti a cinque, Op.9 - Concerto N°1 - I. Allegro  . . . . .  [Concerto Armonico]
TTITLE1=Concerti a cinque, Op.9 - Concerto N°1 - II. Adagio
TTITLE2=Concerti a cinque, Op.9 - Concerto N°1 - III. Allegro
TTITLE3=Concerti a cinque, Op.9 - Concerto N°2 - I. Allegro e non presto
TTITLE4=Concerti a cinque, Op.9 - Concerto N°2 - II. Adagio
TTITLE5=Concerti a cinque, Op.9 - Concerto N°2 - III. Allegro
TTITLE6=Concerti a cinque, Op.9 - Concerto N°4 - I. Allegro
TTITLE7=Concerti a cinque, Op.9 - Concerto N°4 - II. Adagio
TTITLE8=Concerti a cinque, Op.9 - Concerto N°4 - III. Allegro
TTITLE9=Concerti a cinque, Op.9 - Concerto N°5 - I. Allegro
TTITLE10=Concerti a cinque, Op.9 - Concerto N°5 - II. Adagio
TTITLE11=Concerti a cinque, Op.9 - Concerto N°5 - III. Allegro
TTITLE12=Concerti a cinque, Op.9 - Concerto N°6 - I. Allegro
TTITLE13=Concerti a cinque, Op.9 - Concerto N°6 - II. Adagio
TTITLE14=Concerti a cinque, Op.9 - Concerto N°6 - 
TTITLE15=Balleti a cinque - Introduzione Quinta - Adagio  . . . . .  [Pàl Németh, Capella Savaria]
TTITLE16=Balleti a cinque - Allemanda - Allegro
TTITLE17=Balleti a cinque - Corrente - Allegro
TTITLE18=Balleti a cinque - Gavotta - Presto
TTITLE19=Balleti a cinque - Introduzione Sesta - Adagio
TTITLE20=Balleti a cinque - Allemanda
TTITLE21=Balleti a cinque - Correnta alla Francese
TTITLE22=Balleti a cinque - Sarrabanda ala Francese
EXTD=
EXTT0=
EXTT1=
EXTT2=
EXTT3=
EXTT4=
EXTT5=
EXTT6=
EXTT7=
EXTT8=
EXTT9=
EXTT10=
EXTT11=
EXTT12=
EXTT13=
EXTT14=
EXTT15=
EXTT16=
EXTT17=
EXTT18=
EXTT19=
EXTT20=
EXTT21=
EXTT22=
PLAYORDER=
